# xmcd CD database file
# Copyright (C) 1993-1998 Ti Kan
#
# Track frame offsets:
#	150
#	17247
#	30435
#	53982
#	71182
#	84800
#	102065
#	130587
#	147190
#	164627
#	183605
#	196340
#	215400
#	235637
#	258795
#
# Disc length: 3690 seconds
#
# Revision: 1
# Processed by: cddbd v1.4b41PL1 Copyright (c) Steve Scherf et al.
# Submitted via: CDValet v3.31 - Copyright (c) 1997 Greg Leichner
#
DISCID=c80e680f
DTITLE=Georgette Fry - Rites of Passage
DYEAR=1900
DGENRE=
TTITLE0=Don't Do It
TTITLE1=Three Kinds of Fool
TTITLE2=Rites of Passage
TTITLE3=Hound Dog
TTITLE4=20 Million Things
TTITLE5=Undecided Blues
TTITLE6=On The Nickel
TTITLE7=This Should Go On Forever
TTITLE8=When Love Walks Away
TTITLE9=Lovin' Whiskey
TTITLE10=I've Found Peace of Mind
TTITLE11=Come On In My Kitchen
TTITLE12=Sip The Wine
TTITLE13=Calling It Even
TTITLE14=The Exile
EXTD=
EXTT0=
EXTT1=
EXTT2=
EXTT3=
EXTT4=
EXTT5=
EXTT6=
EXTT7=
EXTT8=
EXTT9=
EXTT10=
EXTT11=
EXTT12=
EXTT13=
EXTT14=
PLAYORDER=
